<?xml version="1.0" standalone="no"?><!DOCTYPE svg PUBLIC "-//W3C//DTD SVG 1.1//EN" "http://www.w3.org/Graphics/SVG/1.1/DTD/svg11.dtd"><svg t="1605076305298" class="icon" viewBox="0 0 1024 1024" version="1.1" xmlns="http://www.w3.org/2000/svg" p-id="2302" xmlns:xlink="http://www.w3.org/1999/xlink" width="200" height="200"><defs><style type="text/css"></style></defs><path d="M704.6656 443.392H346.4704c-16.9472 0-30.72-13.7728-30.72-30.72s13.7728-30.72 30.72-30.72h358.1952c16.9472 0 30.72 13.7728 30.72 30.72s-13.7216 30.72-30.72 30.72zM597.504 578.4576H346.4704c-16.9472 0-30.72-13.7728-30.72-30.72s13.7728-30.72 30.72-30.72h250.9824c16.9472 0 30.72 13.7728 30.72 30.72s-13.7216 30.72-30.6688 30.72z" fill="#45CFFF" p-id="2303"></path><path d="M414.7712 879.8208c-11.1616 0-22.3744-2.7136-32.6144-8.1408a69.3248 69.3248 0 0 1-36.864-61.3376v-43.1104c-0.0512-5.4784-4.864-10.24-10.6496-10.24h-56.32c-73.4208 0-133.12-59.6992-133.12-133.12V330.5984c0-73.4208 59.6992-133.12 133.12-133.12h501.9648c73.4208 0 133.12 59.6992 133.12 133.12v293.2736c0 73.4208-59.6992 133.12-133.12 133.12h-159.232c-2.3552 0-4.6592 0.768-6.5024 2.2016l-1.536 1.1264-159.2832 107.5712c-11.776 7.936-25.344 11.9296-38.9632 11.9296zM278.272 258.9184c-39.5264 0-71.68 32.1536-71.68 71.68v293.2736c0 39.5264 32.1536 71.68 71.68 71.68h56.32c39.3216 0 71.68 32 72.0896 71.3216v43.4176c0 3.9936 2.304 6.0928 4.2496 7.1168 1.9456 1.024 4.9664 1.792 8.2944-0.4096l158.6176-107.1104c12.3904-9.216 27.648-14.2848 43.1104-14.2848h159.232c39.5264 0 71.68-32.1536 71.68-71.68V330.5984c0-39.5264-32.1536-71.68-71.68-71.68H278.272z m317.4912 475.9552z" fill="#474747" p-id="2304"></path></svg>